<?xml version="1.0" standalone="no"?>
<!DOCTYPE svg PUBLIC "-//W3C//DTD SVG 20010904//EN"
 "http://www.w3.org/TR/2001/REC-SVG-20010904/DTD/svg10.dtd">
<svg version="1.0" xmlns="http://www.w3.org/2000/svg"
 width="300.000000pt" height="300.000000pt" viewBox="0 0 300.000000 300.000000"
 preserveAspectRatio="xMidYMid meet">
<metadata>
Created by potrace 1.11, written by Peter Selinger 2001-2013
</metadata>
<g transform="translate(0.000000,300.000000) scale(0.100000,-0.100000)"
fill="#000000" stroke="none">
<path d="M1271 2949 c-427 -72 -789 -315 -1020 -683 -173 -277 -254 -652 -205
-954 30 -190 88 -370 159 -498 l35 -62 -93 -22 c-63 -14 -94 -26 -94 -35 0 -8
6 -16 14 -19 7 -3 13 -12 13 -21 0 -8 5 -15 10 -15 6 0 10 -6 10 -14 0 -8 7
-16 15 -20 8 -3 15 -12 15 -20 0 -7 7 -16 15 -20 8 -3 15 -10 15 -16 0 -6 7
-18 15 -27 14 -13 8 -29 -56 -150 -39 -74 -68 -137 -65 -140 3 -3 27 -1 53 5
26 6 148 31 270 56 l222 46 106 -69 c176 -115 348 -180 581 -221 144 -26 284
-25 432 0 226 40 427 118 600 234 l82 55 153 -29 c83 -16 203 -42 265 -56 62
-15 115 -24 118 -21 3 3 -24 60 -60 128 -36 67 -66 127 -66 132 0 5 26 46 59
90 88 123 89 120 -17 146 l-88 22 47 95 c63 125 105 256 135 412 66 354 -18
742 -230 1061 -313 470 -893 723 -1445 630z m399 -49 c97 -12 245 -49 340 -85
92 -35 235 -111 233 -124 -2 -6 3 -8 11 -5 17 6 31 -12 16 -21 -12 -8 -52 13
-45 24 2 5 -1 8 -8 8 -6 -1 -59 22 -117 50 -203 98 -372 137 -600 137 -230 0
-407 -42 -610 -142 -52 -26 -100 -46 -107 -46 -7 1 -11 -3 -10 -8 1 -6 -4 -13
-12 -16 -9 -3 -11 0 -6 9 5 8 4 11 -1 6 -5 -5 -9 -14 -9 -20 0 -5 -5 -12 -12
-14 -6 -2 -10 3 -9 12 3 20 63 58 78 49 6 -4 8 -3 5 3 -12 19 211 114 363 154
131 35 349 47 500 29z m29 -134 c71 -23 91 -117 36 -172 -21 -21 -33 -24 -97
-23 -40 0 -82 4 -93 9 -25 11 -18 12 75 10 65 -1 79 2 94 19 10 11 21 19 25
17 3 -2 4 15 3 39 -5 62 -34 85 -124 99 l-73 12 -1 -78 c-1 -43 -5 -86 -9 -95
-4 -10 -7 -38 -6 -63 1 -45 -11 -81 -22 -62 -4 5 1 78 11 161 l17 152 65 -7
c36 -3 81 -12 99 -18z m425 -137 c25 -23 -9 -16 -80 16 -84 39 -118 50 -109
35 8 -13 -35 -111 -46 -104 -5 3 -9 0 -9 -6 0 -7 7 -10 15 -6 8 3 45 -9 82
-26 79 -36 78 -36 70 -44 -3 -4 -40 8 -82 26 -41 19 -76 32 -78 29 -9 -14 -47
-101 -47 -108 0 -4 38 -25 85 -46 47 -21 85 -42 85 -46 0 -5 -3 -9 -6 -9 -14
0 -194 85 -194 91 0 5 28 71 62 147 l62 139 90 -40 c50 -22 95 -43 100 -48z
m-1014 71 c0 -5 -14 -10 -30 -10 -41 0 -109 -36 -119 -63 -5 -12 -5 -32 0 -45
6 -17 6 -21 -3 -16 -6 4 -8 3 -4 -4 4 -7 42 -9 111 -6 95 4 106 3 125 -16 42
-42 17 -109 -54 -141 -48 -22 -126 -26 -126 -6 0 9 11 12 34 9 79 -9 149 41
142 102 l-3 31 -106 -3 c-115 -3 -130 3 -144 56 -9 37 15 73 67 100 45 23 110
30 110 12z m-394 -45 c-1 -8 -31 -36 -67 -63 -67 -52 -195 -180 -244 -245 -18
-25 -31 -35 -38 -28 -20 20 134 189 268 295 75 59 84 64 81 41z m1590 -8 c1
-9 -1 -17 -6 -17 -12 0 -30 26 -23 34 11 10 26 1 29 -17z m63 -34 c95 -75 281
-271 281 -296 0 -19 -35 7 -78 58 -53 63 -163 173 -222 219 -30 25 -49 56 -33
56 3 0 27 -16 52 -37z m-1551 -30 c6 -10 12 -34 16 -53 l6 -35 -15 31 c-8 17
-21 34 -30 37 -19 8 -20 37 0 37 8 0 18 -8 23 -17z m1537 -122 c37 -21 75 -76
75 -107 0 -33 -16 -30 -23 5 -13 65 -104 119 -169 101 -17 -5 -36 -7 -42 -3
-6 3 -8 2 -3 -2 8 -9 -42 -67 -52 -61 -14 9 -11 -105 4 -133 18 -36 81 -81
112 -81 13 0 23 -5 23 -11 0 -17 -69 -3 -100 19 -87 65 -95 187 -17 260 47 45
129 50 192 13z m-1638 -153 c43 -49 78 -93 78 -98 0 -4 3 -11 8 -14 4 -3 5 -3
3 0 -3 4 45 51 120 117 12 10 24 14 28 9 3 -5 -30 -41 -73 -80 l-78 -71 -107
119 c-59 66 -104 125 -101 131 9 13 25 -2 122 -113z m946 78 c195 -38 330
-109 472 -251 191 -191 275 -408 263 -680 -7 -137 -35 -246 -97 -368 -36 -72
-52 -93 -70 -95 l-23 -4 27 44 c43 69 83 161 107 245 19 65 23 102 23 223 0
167 -18 249 -85 381 -122 245 -356 423 -619 473 -392 75 -778 -128 -952 -499
-118 -251 -101 -554 43 -794 21 -34 38 -65 38 -67 0 -2 -8 -4 -18 -4 -34 0
-106 141 -145 284 -30 109 -31 335 -3 440 62 230 196 419 384 541 108 69 202
105 367 139 48 9 220 5 288 -8z m-1296 -89 c-4 -12 -37 -19 -37 -8 0 4 5 12
12 19 13 13 31 6 25 -11z m1071 16 c-10 -2 -28 -2 -40 0 -13 2 -5 4 17 4 22 1
32 -1 23 -4z m175 0 c-13 -2 -33 -2 -45 0 -13 2 -3 4 22 4 25 0 35 -2 23 -4z
m-250 -10 c-7 -2 -19 -2 -25 0 -7 3 -2 5 12 5 14 0 19 -2 13 -5z m320 0 c-7
-2 -19 -2 -25 0 -7 3 -2 5 12 5 14 0 19 -2 13 -5z m983 -5 c3 -4 3 -12 -1 -18
-7 -12 -35 4 -35 20 0 9 26 7 36 -2z m-1437 -32 c-127 -48 -224 -109 -309
-196 -82 -83 -123 -146 -175 -266 -19 -44 -35 -73 -35 -65 0 23 75 175 118
237 89 131 243 246 407 305 88 31 83 19 -6 -15z m521 19 c19 -7 28 -14 20 -14
-8 0 -28 6 -45 14 -39 17 -21 18 25 0z m-1403 -19 c-3 -6 -9 -10 -15 -9 -6 2
-9 -3 -6 -11 6 -17 -12 -31 -21 -16 -9 14 11 47 30 47 8 0 14 -5 12 -11z
m2339 -13 c-3 -8 -2 -11 4 -8 12 7 33 -32 24 -47 -4 -6 -3 -8 3 -5 6 4 25 -22
43 -59 164 -335 193 -723 80 -1074 -24 -73 -130 -300 -140 -300 -19 0 -13 20
34 113 105 207 150 393 150 627 0 230 -44 416 -143 614 -28 55 -47 104 -44
109 3 6 1 7 -5 3 -13 -8 -36 30 -27 44 9 15 27 0 21 -17z m-2034 -112 c-1 -7
2 -10 8 -6 6 4 17 -9 25 -30 20 -47 6 -102 -36 -144 -25 -25 -39 -31 -75 -31
-51 0 -129 34 -118 52 4 7 3 8 -4 4 -15 -9 -73 24 -65 37 3 6 1 7 -5 3 -15 -9
-54 12 -47 25 4 5 11 9 16 9 6 0 7 -5 3 -12 -4 -7 -3 -8 4 -4 15 9 73 -24 65
-37 -3 -6 -1 -7 5 -3 15 9 55 -18 44 -29 -4 -5 -2 -5 5 -1 7 4 26 0 42 -9 44
-22 77 -19 112 13 25 23 34 40 39 80 3 29 4 49 1 47 -2 -3 -17 6 -32 21 -14
14 -62 46 -106 72 -44 26 -78 52 -76 59 5 15 199 -100 195 -116z m1223 93 c92
-47 147 -88 221 -166 67 -69 119 -145 153 -222 34 -77 20 -63 -26 27 -80 156
-192 267 -353 352 -47 24 -80 44 -75 45 6 0 41 -16 80 -36z m-345 -4 c0 -5 -2
-10 -4 -10 -3 0 -8 5 -11 10 -3 6 -1 10 4 10 6 0 11 -4 11 -10z m-1269 -112
c-97 -194 -144 -393 -144 -613 -1 -233 44 -420 148 -627 29 -59 50 -110 45
-113 -13 -8 -43 42 -34 56 4 7 3 9 -3 6 -13 -8 -82 141 -116 249 -48 152 -61
246 -61 429 1 190 19 302 75 462 41 116 118 268 129 257 6 -6 -10 -49 -39
-106z m2354 23 c8 -14 -145 -222 -158 -214 -6 3 -7 1 -3 -5 10 -16 -35 -75
-47 -63 -6 6 2 24 20 48 l31 38 -44 75 c-45 78 -50 90 -36 90 5 0 26 -31 48
-70 21 -38 43 -70 47 -70 5 0 5 -5 1 -12 -4 -7 -3 -8 5 -4 6 4 9 12 6 17 -3 5
21 45 55 90 38 50 54 79 43 75 -10 -3 -76 -10 -148 -16 -71 -6 -137 -13 -147
-16 -9 -3 -19 0 -23 6 -8 13 -20 10 125 25 160 16 217 17 225 6z m-1260 -291
c3 -5 2 -10 -4 -10 -5 0 -13 5 -16 10 -3 6 -2 10 4 10 5 0 13 -4 16 -10z
m-767 -12 c-4 -12 -42 -25 -88 -31 -14 -2 -32 -7 -40 -10 -8 -4 -54 -15 -102
-25 -52 -10 -84 -22 -80 -27 4 -6 41 -34 84 -63 l76 -52 10 47 c6 27 14 65 17
86 4 20 12 37 17 37 5 0 7 -8 4 -17 -2 -10 -10 -52 -17 -93 -7 -41 -15 -79
-20 -84 -10 -12 -209 131 -203 147 2 7 78 31 167 54 190 48 180 46 175 31z
m2152 1 c0 -15 -221 -259 -230 -254 -4 3 -13 -2 -20 -10 -10 -12 -9 -15 4 -15
9 0 24 4 34 10 32 17 252 48 252 35 0 -14 -301 -67 -313 -55 -5 4 40 61 99
126 134 148 131 144 136 138 3 -2 11 3 19 13 13 15 12 16 -6 9 -49 -20 -76
-26 -174 -41 -68 -10 -108 -12 -114 -6 -6 6 2 12 24 16 253 46 289 50 289 34z
m-622 -49 c-13 -20 -28 -27 -28 -12 0 10 22 32 32 32 5 0 3 -9 -4 -20z m181
-90 c0 -9 -4 -8 -9 5 -5 11 -9 27 -9 35 0 9 4 8 9 -5 5 -11 9 -27 9 -35z m-99
21 c0 -5 -10 -11 -22 -14 -22 -6 -22 -6 -4 8 23 17 26 18 26 6z m-1496 -45
c-3 -21 -8 -35 -11 -32 -2 2 -1 20 3 40 3 21 8 35 11 32 2 -2 1 -20 -3 -40z
m1603 -28 c-3 -7 -5 -2 -5 12 0 14 2 19 5 13 2 -7 2 -19 0 -25z m-1620 -70
c-2 -13 -4 -5 -4 17 -1 22 1 32 4 23 2 -10 2 -28 0 -40z m1630 0 c-2 -13 -4
-5 -4 17 -1 22 1 32 4 23 2 -10 2 -28 0 -40z m-1826 -1 c-7 -7 -15 -6 -25 3
-22 17 -9 32 16 19 14 -8 17 -14 9 -22z m37 -21 c3 -15 1 -16 -17 -6 -12 6
-19 16 -15 21 9 15 28 5 32 -15z m1152 0 c0 -3 -4 -8 -10 -11 -5 -3 -10 -1
-10 4 0 6 5 11 10 11 6 0 10 -2 10 -4z m117 -2 c-3 -3 -12 -4 -19 -1 -8 3 -5
6 6 6 11 1 17 -2 13 -5z m-677 -37 c0 -2 -9 -12 -20 -22 -24 -21 -27 -14 -4 9
15 15 24 20 24 13z m-729 -17 c28 -16 49 -62 56 -131 l6 -61 54 4 c36 3 53 1
53 -7 0 -7 -53 -17 -147 -28 -82 -10 -153 -17 -159 -17 -7 0 -14 32 -19 84 -7
89 5 133 42 155 23 14 89 14 114 1z m1509 0 c-14 -4 -34 -8 -45 -8 -16 0 -15
2 5 8 14 4 34 8 45 8 16 0 15 -2 -5 -8z m73 -7 c-7 -2 -21 -2 -30 0 -10 3 -4
5 12 5 17 0 24 -2 18 -5z m-158 -13 c-27 -12 -43 -12 -25 0 8 5 22 9 30 9 10
0 8 -3 -5 -9z m495 -120 l-9 -45 4 49 c3 27 6 67 7 90 l2 41 3 -45 c2 -25 -1
-65 -7 -90z m-541 107 c-2 -1 -15 -11 -29 -22 l-25 -20 19 23 c11 12 24 22 29
22 6 0 8 -1 6 -3z m745 -6 c3 -5 -2 -15 -11 -22 -46 -38 -56 -127 -19 -164 37
-37 64 -22 102 53 41 82 60 102 100 102 51 0 77 -40 72 -111 -4 -57 -31 -115
-48 -104 -5 3 -1 20 10 38 33 56 31 120 -5 143 -40 26 -67 7 -104 -70 -36 -76
-66 -101 -111 -91 -68 15 -79 124 -22 213 15 23 27 28 36 13z m-1816 -116 c0
-22 -3 -19 -9 15 -10 60 -9 108 2 55 4 -22 8 -53 7 -70z m9 -57 c-3 -8 -6 -5
-6 6 -1 11 2 17 5 13 3 -3 4 -12 1 -19z m1590 0 c-3 -8 -6 -5 -6 6 -1 11 2 17
5 13 3 -3 4 -12 1 -19z m-1503 -198 c15 -25 34 -56 42 -70 13 -20 11 -19 -9 4
-30 35 -103 178 -112 221 -3 17 7 -1 23 -40 17 -38 42 -90 56 -115z m1472 101
c-25 -64 -99 -191 -111 -191 -2 0 13 28 35 62 22 34 52 94 68 134 15 40 29 70
31 68 2 -2 -8 -35 -23 -73z m-461 29 c3 -5 1 -10 -4 -10 -6 0 -11 5 -11 10 0
6 2 10 4 10 3 0 8 -4 11 -10z m-172 -337 l-73 -4 -1 -52 c-1 -29 -2 -78 -3
-109 -2 -107 -16 -59 -16 57 l0 115 83 -2 82 -2 -72 -3z m602 -40 c-2 -10 -6
-34 -9 -55 l-4 -36 27 15 c31 18 70 12 96 -13 13 -14 15 -29 9 -83 -3 -36 -8
-68 -10 -70 -10 -11 -11 8 -4 59 9 61 -4 94 -41 105 -40 13 -73 -24 -85 -96
-6 -35 -12 -55 -13 -44 -2 39 22 235 30 235 4 0 6 -8 4 -17z m-1495 -2 c0 -5
-29 -12 -65 -16 -65 -7 -65 -7 -65 -38 0 -18 3 -42 6 -55 7 -23 16 -24 102 -6
12 2 22 0 22 -5 0 -4 -25 -11 -55 -13 -30 -3 -57 -7 -60 -10 -3 -2 -1 -26 4
-51 4 -26 5 -47 1 -47 -4 0 -13 39 -20 88 -6 48 -13 99 -16 113 -5 26 -3 26
68 36 40 6 74 11 76 12 1 0 2 -3 2 -8z m501 -37 c14 -12 18 -11 34 6 23 26 69
26 95 0 16 -16 20 -32 18 -87 l-1 -68 -6 68 c-8 91 -44 120 -99 81 -19 -13
-22 -25 -23 -87 l-2 -72 -8 69 c-5 38 -14 75 -20 83 -18 21 -66 16 -89 -9 -19
-20 -21 -30 -15 -80 3 -33 2 -58 -3 -58 -5 0 -10 35 -11 77 -1 42 -4 80 -7 85
-3 4 0 8 5 8 6 0 11 -7 11 -17 0 -14 2 -15 18 -1 34 30 70 31 103 2z m528 0
c7 9 23 16 35 16 17 -1 15 -3 -10 -14 -38 -17 -44 -32 -44 -102 0 -33 -4 -54
-11 -54 -6 0 -8 7 -5 16 3 9 6 50 7 92 1 45 4 67 8 53 6 -21 8 -22 20 -7z
m-709 6 c0 -5 -7 -10 -15 -10 -29 0 -48 -47 -42 -105 3 -31 2 -55 -4 -55 -5 0
-9 24 -9 54 0 29 -3 68 -6 85 -4 20 -2 31 4 31 6 0 9 -7 6 -15 -4 -8 -1 -15 5
-15 6 0 11 5 11 10 0 8 25 24 48 29 1 1 2 -3 2 -9z m899 -5 c26 -13 40 -39 41
-72 0 -8 -12 -12 -32 -12 -31 2 -31 2 -5 6 32 5 34 22 9 54 -13 15 -30 22 -52
22 -22 0 -39 -7 -52 -22 -27 -34 -23 -41 25 -43 l42 -1 -42 -4 c-50 -5 -55
-21 -18 -58 26 -27 54 -31 86 -15 11 6 19 7 19 1 0 -21 -55 -27 -93 -10 -59
27 -61 129 -3 157 29 15 43 14 75 -3z m-1055 -27 c7 -13 16 -52 19 -88 2 -36
3 -57 0 -48 -4 16 -7 16 -33 -3 -38 -28 -87 -19 -97 18 -8 34 26 63 73 63 41
0 50 14 30 45 -19 29 -51 32 -84 9 -13 -9 -22 -11 -22 -4 0 14 37 29 72 29 18
1 32 -7 42 -21z m1234 16 c12 -4 22 -10 22 -16 0 -5 -8 -4 -19 2 -41 21 -91 6
-91 -28 0 -7 22 -22 49 -34 54 -22 67 -39 51 -69 -14 -24 -87 -26 -116 -3 -19
15 -19 16 1 8 11 -4 38 -8 60 -8 36 -1 40 2 40 23 0 19 -9 27 -45 40 -33 12
-46 23 -48 39 -7 44 32 63 96 46z m-485 -31 c-18 -2 -48 -2 -65 0 -18 2 -4 4
32 4 36 0 50 -2 33 -4z m-1025 -348 c-2 -61 -6 -74 -21 -59 -4 4 -57 23 -118
43 l-112 36 98 13 c53 8 107 17 119 22 35 14 36 13 34 -55z m1855 -15 c-59
-19 -112 -39 -116 -45 -5 -6 -7 -4 -5 5 3 8 37 26 76 40 40 14 72 28 72 31 0
4 -25 10 -57 14 -31 4 -62 9 -70 12 -9 3 -13 -3 -13 -20 0 -14 -5 -29 -10 -32
-6 -4 -8 -10 -5 -15 8 -14 -24 -35 -36 -23 -8 8 -4 16 15 28 19 13 26 26 26
49 l0 32 116 -20 115 -21 -108 -35z m-776 8 c-3 -8 -6 -5 -6 6 -1 11 2 17 5
13 3 -3 4 -12 1 -19z m162 -12 c-3 -3 -11 5 -18 17 -13 21 -12 21 5 5 10 -10
16 -20 13 -22z m-1184 -15 c3 -5 0 -13 -6 -16 -13 -8 -32 8 -35 30 -2 11 2 13
16 5 11 -6 21 -14 25 -19z m673 -1 c-7 -10 -14 -17 -17 -15 -4 4 18 35 25 35
2 0 -1 -9 -8 -20z m403 -7 c-12 -20 -14 -14 -5 12 4 9 9 14 11 11 3 -2 0 -13
-6 -23z m-507 2 c-4 -8 -8 -15 -10 -15 -2 0 -4 7 -4 15 0 8 4 15 10 15 5 0 7
-7 4 -15z m381 -13 c-3 -3 -11 0 -18 7 -9 10 -8 11 6 5 10 -3 15 -9 12 -12z
m198 -15 c-15 -19 -30 -32 -32 -30 -5 3 49 63 57 63 2 0 -9 -15 -25 -33z
m-1118 14 c7 -12 -12 -24 -25 -16 -11 7 -4 25 10 25 5 0 11 -4 15 -9z m436 -9
c-7 -2 -18 1 -23 6 -8 8 -4 9 13 5 13 -4 18 -8 10 -11z m1162 11 c8 -7 -11
-33 -23 -33 -7 0 -7 18 -1 38 2 5 18 2 24 -5z m-633 -32 c-6 -12 -15 -21 -21
-21 -6 0 -3 7 5 16 9 8 16 20 16 26 0 6 3 9 6 6 3 -4 1 -16 -6 -27z m-935 10
c7 -12 -12 -24 -25 -16 -11 7 -4 25 10 25 5 0 11 -4 15 -9z m1531 -7 c-3 -19
-32 -38 -46 -29 -15 9 -1 27 16 21 8 -3 13 -2 13 2 -2 14 1 22 10 22 5 0 8 -7
7 -16z m-1069 -16 c-3 -8 -6 -5 -6 6 -1 11 2 17 5 13 3 -3 4 -12 1 -19z m154
5 c13 -16 12 -17 -3 -4 -17 13 -22 21 -14 21 2 0 10 -8 17 -17z m-586 -2 c7
-12 -12 -24 -25 -16 -11 7 -4 25 10 25 5 0 11 -4 15 -9z m680 -9 c-3 -3 -11 0
-18 7 -9 10 -8 11 6 5 10 -3 15 -9 12 -12z m-565 -54 c201 -99 377 -140 605
-141 230 0 425 45 623 144 57 29 100 45 106 39 11 -11 -141 -88 -257 -129
-160 -56 -272 -74 -462 -75 -183 0 -277 13 -429 61 -108 34 -257 103 -249 116
3 6 1 7 -5 3 -15 -9 -54 12 -46 25 3 6 9 9 13 7 4 -2 49 -24 101 -50z"/>
<path d="M589 2563 c-13 -16 -12 -17 4 -4 16 13 21 21 13 21 -2 0 -10 -8 -17
-17z"/>
<path d="M429 2403 c-13 -16 -12 -17 4 -4 9 7 17 15 17 17 0 8 -8 3 -21 -13z"/>
<path d="M2380 2586 c0 -2 8 -10 18 -17 15 -13 16 -12 3 4 -13 16 -21 21 -21
13z"/>
<path d="M2485 2490 c10 -11 20 -20 23 -20 3 0 -3 9 -13 20 -10 11 -20 20 -23
20 -3 0 3 -9 13 -20z"/>
<path d="M2560 2406 c0 -2 8 -10 18 -17 15 -13 16 -12 3 4 -13 16 -21 21 -21
13z"/>
<path d="M795 2580 c3 -5 8 -10 11 -10 2 0 4 5 4 10 0 6 -5 10 -11 10 -5 0 -7
-4 -4 -10z"/>
<path d="M640 2367 c0 -2 15 -16 33 -33 l32 -29 -29 33 c-28 30 -36 37 -36 29z"/>
<path d="M750 2245 c13 -14 26 -25 28 -25 3 0 -5 11 -18 25 -13 14 -26 25 -28
25 -3 0 5 -11 18 -25z"/>
<path d="M1463 2383 c20 -2 54 -2 75 0 20 2 3 4 -38 4 -41 0 -58 -2 -37 -4z"/>
<path d="M1358 2373 c7 -3 16 -2 19 1 4 3 -2 6 -13 5 -11 0 -14 -3 -6 -6z"/>
<path d="M1628 2373 c7 -3 16 -2 19 1 4 3 -2 6 -13 5 -11 0 -14 -3 -6 -6z"/>
<path d="M1228 2343 c7 -3 16 -2 19 1 4 3 -2 6 -13 5 -11 0 -14 -3 -6 -6z"/>
<path d="M1180 2330 c-8 -5 -10 -10 -5 -10 6 0 17 5 25 10 8 5 11 10 5 10 -5
0 -17 -5 -25 -10z"/>
<path d="M1800 2330 c8 -5 20 -10 25 -10 6 0 3 5 -5 10 -8 5 -19 10 -25 10 -5
0 -3 -5 5 -10z"/>
<path d="M1084 2286 c-92 -49 -155 -98 -236 -185 -63 -67 -118 -141 -105 -141
2 0 19 21 38 48 80 112 182 202 310 272 41 22 70 40 64 40 -5 0 -38 -15 -71
-34z"/>
<path d="M1912 2279 c158 -83 297 -228 380 -394 27 -55 46 -89 42 -75 -11 40
-63 140 -104 200 -74 108 -204 221 -322 281 -32 16 -61 29 -65 29 -4 0 27 -19
69 -41z"/>
<path d="M704 1899 c-14 -28 -24 -53 -22 -55 2 -2 16 21 31 51 15 30 25 55 22
55 -3 0 -16 -23 -31 -51z"/>
<path d="M661 1799 c-6 -18 -11 -37 -10 -43 0 -6 7 7 15 28 8 22 12 41 10 43
-2 2 -9 -10 -15 -28z"/>
<path d="M2351 1734 c0 -11 3 -14 6 -6 3 7 2 16 -1 19 -3 4 -6 -2 -5 -13z"/>
<path d="M2361 1694 c0 -11 3 -14 6 -6 3 7 2 16 -1 19 -3 4 -6 -2 -5 -13z"/>
<path d="M2371 1644 c0 -11 3 -14 6 -6 3 7 2 16 -1 19 -3 4 -6 -2 -5 -13z"/>
<path d="M621 1634 c0 -11 3 -14 6 -6 3 7 2 16 -1 19 -3 4 -6 -2 -5 -13z"/>
<path d="M2383 1500 c0 -41 2 -58 4 -37 2 20 2 54 0 75 -2 20 -4 3 -4 -38z"/>
<path d="M613 1500 c0 -30 2 -43 4 -27 2 15 2 39 0 55 -2 15 -4 2 -4 -28z"/>
<path d="M621 1364 c0 -11 3 -14 6 -6 3 7 2 16 -1 19 -3 4 -6 -2 -5 -13z"/>
<path d="M2371 1354 c0 -11 3 -14 6 -6 3 7 2 16 -1 19 -3 4 -6 -2 -5 -13z"/>
<path d="M2361 1304 c0 -11 3 -14 6 -6 3 7 2 16 -1 19 -3 4 -6 -2 -5 -13z"/>
<path d="M2351 1264 c0 -11 3 -14 6 -6 3 7 2 16 -1 19 -3 4 -6 -2 -5 -13z"/>
<path d="M651 1234 c0 -11 3 -14 6 -6 3 7 2 16 -1 19 -3 4 -6 -2 -5 -13z"/>
<path d="M660 1205 c0 -5 5 -17 10 -25 5 -8 10 -10 10 -5 0 6 -5 17 -10 25 -5
8 -10 11 -10 5z"/>
<path d="M2278 1087 c-26 -51 -41 -83 -32 -72 19 24 87 156 82 160 -2 2 -24
-38 -50 -88z"/>
<path d="M680 1156 c0 -11 57 -119 74 -141 9 -11 -3 16 -26 60 -45 86 -48 92
-48 81z"/>
<path d="M2654 1758 l-29 -33 33 29 c30 28 37 36 29 36 -2 0 -16 -15 -33 -32z"/>
<path d="M2559 1653 l-24 -28 28 24 c25 23 32 31 24 31 -2 0 -14 -12 -28 -27z"/>
<path d="M336 1490 c-25 -5 -49 -18 -64 -36 -23 -26 -24 -33 -18 -98 4 -38 8
-71 9 -72 1 -1 34 3 72 7 39 5 81 7 95 5 14 -3 19 -3 13 0 -8 3 -13 24 -13 50
0 51 -25 120 -46 128 -9 3 -12 10 -9 16 3 5 5 9 3 9 -2 -1 -21 -5 -42 -9z"/>
<path d="M862 710 c-51 -8 -66 -21 -57 -49 14 -45 89 -34 101 14 9 36 3 41
-44 35z"/>
<path d="M545 445 c-5 -2 -28 -7 -50 -10 l-40 -7 70 -24 c75 -26 95 -25 90 3
-2 10 -4 24 -4 31 -1 11 -41 15 -66 7z"/>
</g>
</svg>
